<svg width="50" height="50" viewBox="0 0 50 50" fill="none" xmlns="http://www.w3.org/2000/svg">
<path d="M25.0001 16.6667V25L29.1667 29.1667M6.35425 22.9168C6.82111 18.3336 8.95896 14.0827 12.3599 10.9751C15.7609 7.86747 20.1869 6.12074 24.7936 6.06812C29.4002 6.0155 33.865 7.66069 37.3361 10.6898C40.8071 13.7189 43.0415 17.9199 43.6129 22.4912C44.1844 27.0626 43.0528 31.6843 40.4342 35.4746C37.8155 39.265 33.8931 41.9586 29.4153 43.0415C24.9374 44.1244 20.2176 43.5209 16.1563 41.3461C12.095 39.1713 8.97658 35.5774 7.39591 31.2501M6.35425 41.6668V31.2501H16.7709" stroke="#5200FF" stroke-width="3" stroke-linecap="round" stroke-linejoin="round"/>
</svg>
