<svg width="148" height="54" viewBox="0 0 148 54" fill="none" xmlns="http://www.w3.org/2000/svg">
<circle cx="5" cy="17" r="5" fill="#091A2A"/>
<path d="M45.1714 35.504C43.1554 35.504 41.2954 35.18 39.5914 34.532C37.8874 33.884 36.3994 32.972 35.1274 31.796C33.8794 30.596 32.9074 29.204 32.2114 27.62C31.5154 26.036 31.1674 24.296 31.1674 22.4C31.1674 20.504 31.5154 18.764 32.2114 17.18C32.9074 15.596 33.8794 14.216 35.1274 13.04C36.3994 11.84 37.8874 10.916 39.5914 10.268C41.2954 9.62 43.1554 9.296 45.1714 9.296C47.2114 9.296 49.0714 9.62 50.7514 10.268C52.4554 10.916 53.9314 11.828 55.1794 13.004C56.4274 14.18 57.3994 15.572 58.0954 17.18C58.8154 18.764 59.1754 20.504 59.1754 22.4C59.1754 24.296 58.8154 26.048 58.0954 27.656C57.3994 29.24 56.4274 30.62 55.1794 31.796C53.9314 32.972 52.4554 33.884 50.7514 34.532C49.0714 35.18 47.2114 35.504 45.1714 35.504ZM53.4154 41.084C52.3354 41.084 51.3274 40.964 50.3914 40.724C49.4554 40.508 48.5314 40.148 47.6194 39.644C46.7314 39.14 45.7954 38.456 44.8114 37.592C43.8514 36.728 42.7714 35.66 41.5714 34.388L49.0234 32.516C49.6234 33.404 50.1634 34.1 50.6434 34.604C51.1234 35.108 51.5914 35.468 52.0474 35.684C52.5274 35.9 53.0314 36.008 53.5594 36.008C54.9514 36.008 56.2234 35.42 57.3754 34.244L60.4714 37.916C58.7194 40.028 56.3674 41.084 53.4154 41.084ZM45.1714 29.6C46.1314 29.6 47.0194 29.432 47.8354 29.096C48.6754 28.76 49.3954 28.28 49.9954 27.656C50.6194 27.008 51.0994 26.24 51.4354 25.352C51.7954 24.464 51.9754 23.48 51.9754 22.4C51.9754 21.296 51.7954 20.312 51.4354 19.448C51.0994 18.56 50.6194 17.804 49.9954 17.18C49.3954 16.532 48.6754 16.04 47.8354 15.704C47.0194 15.368 46.1314 15.2 45.1714 15.2C44.2114 15.2 43.3114 15.368 42.4714 15.704C41.6554 16.04 40.9354 16.532 40.3114 17.18C39.7114 17.804 39.2314 18.56 38.8714 19.448C38.5354 20.312 38.3674 21.296 38.3674 22.4C38.3674 23.48 38.5354 24.464 38.8714 25.352C39.2314 26.24 39.7114 27.008 40.3114 27.656C40.9354 28.28 41.6554 28.76 42.4714 29.096C43.3114 29.432 44.2114 29.6 45.1714 29.6ZM72.7007 35V31.364L72.2327 30.464V23.768C72.2327 22.688 71.8967 21.86 71.2247 21.284C70.5767 20.684 69.5327 20.384 68.0927 20.384C67.1567 20.384 66.2087 20.54 65.2487 20.852C64.2887 21.14 63.4727 21.548 62.8007 22.076L60.4967 17.432C61.6007 16.712 62.9207 16.16 64.4567 15.776C66.0167 15.368 67.5647 15.164 69.1007 15.164C72.2687 15.164 74.7167 15.896 76.4447 17.36C78.1967 18.8 79.0727 21.068 79.0727 24.164V35H72.7007ZM66.9407 35.324C65.3807 35.324 64.0607 35.06 62.9807 34.532C61.9007 34.004 61.0727 33.284 60.4967 32.372C59.9447 31.46 59.6687 30.44 59.6687 29.312C59.6687 28.112 59.9687 27.08 60.5687 26.216C61.1927 25.328 62.1407 24.656 63.4127 24.2C64.6847 23.72 66.3287 23.48 68.3447 23.48H72.9527V27.044H69.2807C68.1767 27.044 67.3967 27.224 66.9407 27.584C66.5087 27.944 66.2927 28.424 66.2927 29.024C66.2927 29.624 66.5207 30.104 66.9767 30.464C67.4327 30.824 68.0567 31.004 68.8487 31.004C69.5927 31.004 70.2647 30.824 70.8647 30.464C71.4887 30.08 71.9447 29.504 72.2327 28.736L73.1687 31.256C72.8087 32.6 72.1007 33.62 71.0447 34.316C70.0127 34.988 68.6447 35.324 66.9407 35.324ZM94.2981 15.164C95.8101 15.164 97.1781 15.476 98.4021 16.1C99.6261 16.7 100.586 17.636 101.282 18.908C102.002 20.18 102.362 21.824 102.362 23.84V35H95.5221V24.956C95.5221 23.564 95.2341 22.556 94.6581 21.932C94.1061 21.284 93.3261 20.96 92.3181 20.96C91.5981 20.96 90.9381 21.128 90.3381 21.464C89.7381 21.776 89.2701 22.268 88.9341 22.94C88.5981 23.612 88.4301 24.488 88.4301 25.568V35H81.5901V15.488H88.1061V21.032L86.8461 19.412C87.5901 17.996 88.6101 16.94 89.9061 16.244C91.2021 15.524 92.6661 15.164 94.2981 15.164ZM113.599 35.324C111.823 35.324 110.203 34.916 108.739 34.1C107.299 33.26 106.147 32.096 105.283 30.608C104.419 29.096 103.987 27.296 103.987 25.208C103.987 23.144 104.419 21.368 105.283 19.88C106.147 18.368 107.299 17.204 108.739 16.388C110.203 15.572 111.823 15.164 113.599 15.164C115.279 15.164 116.695 15.524 117.847 16.244C119.023 16.964 119.911 18.068 120.511 19.556C121.111 21.044 121.411 22.928 121.411 25.208C121.411 27.536 121.123 29.444 120.547 30.932C119.971 32.42 119.107 33.524 117.955 34.244C116.803 34.964 115.351 35.324 113.599 35.324ZM115.039 29.888C115.807 29.888 116.491 29.708 117.091 29.348C117.715 28.988 118.207 28.46 118.567 27.764C118.927 27.044 119.107 26.192 119.107 25.208C119.107 24.224 118.927 23.396 118.567 22.724C118.207 22.028 117.715 21.5 117.091 21.14C116.491 20.78 115.807 20.6 115.039 20.6C114.247 20.6 113.539 20.78 112.915 21.14C112.315 21.5 111.835 22.028 111.475 22.724C111.115 23.396 110.935 24.224 110.935 25.208C110.935 26.192 111.115 27.044 111.475 27.764C111.835 28.46 112.315 28.988 112.915 29.348C113.539 29.708 114.247 29.888 115.039 29.888ZM119.323 35V31.652L119.359 25.208L118.999 18.764V8.288H125.839V35H119.323ZM128.439 35V15.488H135.279V35H128.439ZM131.859 13.328C130.611 13.328 129.603 12.98 128.835 12.284C128.067 11.588 127.683 10.724 127.683 9.692C127.683 8.66 128.067 7.796 128.835 7.1C129.603 6.404 130.611 6.056 131.859 6.056C133.107 6.056 134.115 6.392 134.883 7.064C135.651 7.712 136.035 8.552 136.035 9.584C136.035 10.664 135.651 11.564 134.883 12.284C134.139 12.98 133.131 13.328 131.859 13.328ZM137.925 35V8.288H144.765V35H137.925Z" fill="#091A2A"/>
<path d="M43.0229 44H41.9661C41.9036 43.696 41.7942 43.429 41.638 43.1989C41.4846 42.9688 41.2971 42.7756 41.0755 42.6193C40.8567 42.4602 40.6138 42.3409 40.3468 42.2614C40.0797 42.1818 39.8013 42.142 39.5115 42.142C38.9831 42.142 38.5044 42.2756 38.0755 42.5426C37.6493 42.8097 37.3098 43.2031 37.057 43.723C36.807 44.2429 36.682 44.8807 36.682 45.6364C36.682 46.392 36.807 47.0298 37.057 47.5497C37.3098 48.0696 37.6493 48.4631 38.0755 48.7301C38.5044 48.9972 38.9831 49.1307 39.5115 49.1307C39.8013 49.1307 40.0797 49.0909 40.3468 49.0114C40.6138 48.9318 40.8567 48.8139 41.0755 48.6577C41.2971 48.4986 41.4846 48.304 41.638 48.0739C41.7942 47.8409 41.9036 47.5739 41.9661 47.2727H43.0229C42.9434 47.7187 42.7985 48.1179 42.5882 48.4702C42.378 48.8224 42.1167 49.1222 41.8042 49.3693C41.4917 49.6136 41.1408 49.7997 40.7516 49.9276C40.3652 50.0554 39.9519 50.1193 39.5115 50.1193C38.7672 50.1193 38.1053 49.9375 37.5257 49.5739C36.9462 49.2102 36.4902 48.6932 36.1578 48.0227C35.8255 47.3523 35.6593 46.5568 35.6593 45.6364C35.6593 44.7159 35.8255 43.9205 36.1578 43.25C36.4902 42.5795 36.9462 42.0625 37.5257 41.6989C38.1053 41.3352 38.7672 41.1534 39.5115 41.1534C39.9519 41.1534 40.3652 41.2173 40.7516 41.3452C41.1408 41.473 41.4917 41.6605 41.8042 41.9077C42.1167 42.152 42.378 42.4503 42.5882 42.8026C42.7985 43.152 42.9434 43.5511 43.0229 44ZM45.6 46.0625V50H44.5943V41.2727H45.6V44.4773H45.6852C45.8386 44.1392 46.0687 43.8707 46.3755 43.6719C46.6852 43.4702 47.0971 43.3693 47.6113 43.3693C48.0574 43.3693 48.448 43.4588 48.7832 43.6378C49.1184 43.8139 49.3784 44.0852 49.563 44.4517C49.7505 44.8153 49.8443 45.2784 49.8443 45.8409V50H48.8386V45.9091C48.8386 45.3892 48.7037 44.9872 48.4338 44.7031C48.1667 44.4162 47.796 44.2727 47.3216 44.2727C46.992 44.2727 46.6966 44.3423 46.4352 44.4815C46.1767 44.6207 45.9721 44.8239 45.8216 45.0909C45.6738 45.358 45.6 45.6818 45.6 46.0625ZM53.6103 50.1534C53.1955 50.1534 52.8191 50.0753 52.481 49.919C52.1429 49.7599 51.8745 49.5312 51.6756 49.233C51.4767 48.9318 51.3773 48.5682 51.3773 48.142C51.3773 47.767 51.4512 47.4631 51.5989 47.2301C51.7466 46.9943 51.9441 46.8097 52.1912 46.6761C52.4384 46.5426 52.7111 46.4432 53.0094 46.3778C53.3105 46.3097 53.6131 46.2557 53.9171 46.2159C54.3148 46.1648 54.6373 46.1264 54.8844 46.1009C55.1344 46.0724 55.3162 46.0256 55.4299 45.9602C55.5463 45.8949 55.6046 45.7812 55.6046 45.6193V45.5852C55.6046 45.1648 55.4895 44.8381 55.2594 44.6051C55.0321 44.3722 54.687 44.2557 54.2239 44.2557C53.7438 44.2557 53.3674 44.3608 53.0946 44.571C52.8219 44.7812 52.6301 45.0057 52.5194 45.2443L51.5648 44.9034C51.7353 44.5057 51.9625 44.196 52.2466 43.9744C52.5336 43.75 52.8461 43.5937 53.1841 43.5057C53.525 43.4148 53.8603 43.3693 54.1898 43.3693C54.4 43.3693 54.6415 43.3949 54.9142 43.446C55.1898 43.4943 55.4554 43.5952 55.7111 43.7486C55.9696 43.902 56.1841 44.1335 56.3546 44.4432C56.525 44.7528 56.6103 45.1676 56.6103 45.6875V50H55.6046V49.1136H55.5534C55.4853 49.2557 55.3716 49.4077 55.2125 49.5696C55.0534 49.7315 54.8418 49.8693 54.5776 49.983C54.3134 50.0966 53.9909 50.1534 53.6103 50.1534ZM53.7637 49.25C54.1614 49.25 54.4966 49.1719 54.7694 49.0156C55.0449 48.8594 55.2523 48.6577 55.3915 48.4105C55.5336 48.1634 55.6046 47.9034 55.6046 47.6307V46.7102C55.562 46.7614 55.4682 46.8082 55.3233 46.8509C55.1813 46.8906 55.0165 46.9261 54.829 46.9574C54.6444 46.9858 54.464 47.0114 54.2878 47.0341C54.1145 47.054 53.9739 47.071 53.8659 47.0852C53.6046 47.1193 53.3603 47.1747 53.133 47.2514C52.9086 47.3253 52.7267 47.4375 52.5875 47.5881C52.4512 47.7358 52.383 47.9375 52.383 48.1932C52.383 48.5426 52.5123 48.8068 52.7708 48.9858C53.0321 49.1619 53.3631 49.25 53.7637 49.25ZM58.4458 50V43.4545H59.4174V44.4432H59.4856C59.6049 44.1193 59.8208 43.8565 60.1333 43.6548C60.4458 43.4531 60.7981 43.3523 61.1902 43.3523C61.264 43.3523 61.3564 43.3537 61.4672 43.3565C61.5779 43.3594 61.6618 43.3636 61.7186 43.3693V44.392C61.6845 44.3835 61.6064 44.3707 61.4842 44.3537C61.3649 44.3338 61.2385 44.3239 61.1049 44.3239C60.7868 44.3239 60.5027 44.3906 60.2527 44.5241C60.0055 44.6548 59.8095 44.8366 59.6646 45.0696C59.5225 45.2997 59.4515 45.5625 59.4515 45.858V50H58.4458ZM65.3706 50.1364C64.7797 50.1364 64.2612 49.9957 63.8152 49.7145C63.372 49.4332 63.0254 49.0398 62.7754 48.5341C62.5282 48.0284 62.4047 47.4375 62.4047 46.7614C62.4047 46.0795 62.5282 45.4844 62.7754 44.9759C63.0254 44.4673 63.372 44.0724 63.8152 43.7912C64.2612 43.5099 64.7797 43.3693 65.3706 43.3693C65.9615 43.3693 66.4785 43.5099 66.9217 43.7912C67.3677 44.0724 67.7143 44.4673 67.9615 44.9759C68.2115 45.4844 68.3365 46.0795 68.3365 46.7614C68.3365 47.4375 68.2115 48.0284 67.9615 48.5341C67.7143 49.0398 67.3677 49.4332 66.9217 49.7145C66.4785 49.9957 65.9615 50.1364 65.3706 50.1364ZM65.3706 49.233C65.8194 49.233 66.1887 49.1179 66.4785 48.8878C66.7683 48.6577 66.9828 48.3551 67.122 47.9801C67.2612 47.6051 67.3308 47.1989 67.3308 46.7614C67.3308 46.3239 67.2612 45.9162 67.122 45.5384C66.9828 45.1605 66.7683 44.8551 66.4785 44.6222C66.1887 44.3892 65.8194 44.2727 65.3706 44.2727C64.9217 44.2727 64.5524 44.3892 64.2626 44.6222C63.9728 44.8551 63.7583 45.1605 63.6191 45.5384C63.4799 45.9162 63.4103 46.3239 63.4103 46.7614C63.4103 47.1989 63.4799 47.6051 63.6191 47.9801C63.7583 48.3551 63.9728 48.6577 64.2626 48.8878C64.5524 49.1179 64.9217 49.233 65.3706 49.233ZM72.5137 52.5909C72.0279 52.5909 71.6103 52.5284 71.2608 52.4034C70.9114 52.2812 70.6202 52.1193 70.3873 51.9176C70.1571 51.7188 69.9739 51.5057 69.8375 51.2784L70.6387 50.7159C70.7296 50.8352 70.8446 50.9716 70.9838 51.125C71.123 51.2812 71.3134 51.4162 71.5549 51.5298C71.7992 51.6463 72.1188 51.7045 72.5137 51.7045C73.0421 51.7045 73.4782 51.5767 73.8219 51.321C74.1657 51.0653 74.3375 50.6648 74.3375 50.1193V48.7898H74.2523C74.1784 48.9091 74.0733 49.0568 73.937 49.233C73.8034 49.4062 73.6103 49.5611 73.3574 49.6974C73.1074 49.831 72.7694 49.8977 72.3432 49.8977C71.8148 49.8977 71.3404 49.7727 70.9199 49.5227C70.5023 49.2727 70.1713 48.9091 69.927 48.4318C69.6855 47.9545 69.5648 47.375 69.5648 46.6932C69.5648 46.0227 69.6827 45.4389 69.9185 44.9418C70.1543 44.4418 70.4824 44.0554 70.9029 43.7827C71.3233 43.5071 71.8091 43.3693 72.3603 43.3693C72.7864 43.3693 73.1245 43.4403 73.3745 43.5824C73.6273 43.7216 73.8205 43.8807 73.954 44.0597C74.0904 44.2358 74.1955 44.3807 74.2694 44.4943H74.3716V43.4545H75.3432V50.1875C75.3432 50.75 75.2154 51.2074 74.9597 51.5597C74.7069 51.9148 74.3659 52.1747 73.937 52.3395C73.5108 52.5071 73.0364 52.5909 72.5137 52.5909ZM72.4796 48.9943C72.883 48.9943 73.2239 48.902 73.5023 48.7173C73.7807 48.5327 73.9924 48.267 74.1373 47.9205C74.2821 47.5739 74.3546 47.1591 74.3546 46.6761C74.3546 46.2045 74.2836 45.7884 74.1415 45.4276C73.9995 45.0668 73.7892 44.7841 73.5108 44.5795C73.2324 44.375 72.8887 44.2727 72.4796 44.2727C72.0534 44.2727 71.6983 44.3807 71.4142 44.5966C71.133 44.8125 70.9213 45.1023 70.7793 45.4659C70.6401 45.8295 70.5705 46.233 70.5705 46.6761C70.5705 47.1307 70.6415 47.5327 70.7836 47.8821C70.9284 48.2287 71.1415 48.5014 71.4228 48.7003C71.7069 48.8963 72.0591 48.9943 72.4796 48.9943ZM78.0705 41.2727V42.0398C78.0705 42.2727 78.0279 42.5213 77.9426 42.7855C77.8603 43.0469 77.7381 43.3011 77.5762 43.5483C77.4171 43.7926 77.2239 44.0057 76.9966 44.1875L76.4512 43.7443C76.6301 43.4886 76.785 43.223 76.9157 42.9474C77.0492 42.669 77.1159 42.3722 77.1159 42.0568V41.2727H78.0705ZM81.3081 50.1364C80.7172 50.1364 80.1987 49.9957 79.7527 49.7145C79.3095 49.4332 78.9629 49.0398 78.7129 48.5341C78.4657 48.0284 78.3422 47.4375 78.3422 46.7614C78.3422 46.0795 78.4657 45.4844 78.7129 44.9759C78.9629 44.4673 79.3095 44.0724 79.7527 43.7912C80.1987 43.5099 80.7172 43.3693 81.3081 43.3693C81.899 43.3693 82.416 43.5099 82.8592 43.7912C83.3052 44.0724 83.6518 44.4673 83.899 44.9759C84.149 45.4844 84.274 46.0795 84.274 46.7614C84.274 47.4375 84.149 48.0284 83.899 48.5341C83.6518 49.0398 83.3052 49.4332 82.8592 49.7145C82.416 49.9957 81.899 50.1364 81.3081 50.1364ZM81.3081 49.233C81.7569 49.233 82.1262 49.1179 82.416 48.8878C82.7058 48.6577 82.9203 48.3551 83.0595 47.9801C83.1987 47.6051 83.2683 47.1989 83.2683 46.7614C83.2683 46.3239 83.1987 45.9162 83.0595 45.5384C82.9203 45.1605 82.7058 44.8551 82.416 44.6222C82.1262 44.3892 81.7569 44.2727 81.3081 44.2727C80.8592 44.2727 80.4899 44.3892 80.2001 44.6222C79.9103 44.8551 79.6958 45.1605 79.5566 45.5384C79.4174 45.9162 79.3478 46.3239 79.3478 46.7614C79.3478 47.1989 79.4174 47.6051 79.5566 47.9801C79.6958 48.3551 79.9103 48.6577 80.2001 48.8878C80.4899 49.1179 80.8592 49.233 81.3081 49.233ZM86.8148 46.0625V50H85.8091V43.4545H86.7807V44.4773H86.8659C87.0194 44.1449 87.2523 43.8778 87.5648 43.6761C87.8773 43.4716 88.2807 43.3693 88.775 43.3693C89.2182 43.3693 89.606 43.4602 89.9384 43.642C90.2708 43.821 90.5293 44.0938 90.714 44.4602C90.8986 44.8239 90.9909 45.2841 90.9909 45.8409V50H89.9853V45.9091C89.9853 45.3949 89.8517 44.9943 89.5847 44.7074C89.3176 44.4176 88.9512 44.2727 88.4853 44.2727C88.1642 44.2727 87.8773 44.3423 87.6245 44.4815C87.3745 44.6207 87.177 44.8239 87.0321 45.0909C86.8873 45.358 86.8148 45.6818 86.8148 46.0625ZM93.8343 41.2727V50H92.8287V41.2727H93.8343ZM95.6763 50V43.4545H96.682V50H95.6763ZM96.1877 42.3636C95.9917 42.3636 95.8226 42.2969 95.6806 42.1634C95.5414 42.0298 95.4718 41.8693 95.4718 41.6818C95.4718 41.4943 95.5414 41.3338 95.6806 41.2003C95.8226 41.0668 95.9917 41 96.1877 41C96.3837 41 96.5513 41.0668 96.6905 41.2003C96.8326 41.3338 96.9036 41.4943 96.9036 41.6818C96.9036 41.8693 96.8326 42.0298 96.6905 42.1634C96.5513 42.2969 96.3837 42.3636 96.1877 42.3636ZM99.4615 47.6136L99.4444 46.3693H99.649L102.513 43.4545H103.757L100.706 46.5398H100.621L99.4615 47.6136ZM98.524 50V41.2727H99.5297V50H98.524ZM102.683 50L100.126 46.7614L100.842 46.0625L103.961 50H102.683ZM111.273 43.4545V44.3068H107.881V43.4545H111.273ZM108.869 41.8864H109.875V48.125C109.875 48.4091 109.916 48.6222 109.999 48.7642C110.084 48.9034 110.192 48.9972 110.323 49.0455C110.456 49.0909 110.597 49.1136 110.744 49.1136C110.855 49.1136 110.946 49.108 111.017 49.0966C111.088 49.0824 111.145 49.071 111.188 49.0625L111.392 49.9659C111.324 49.9915 111.229 50.017 111.107 50.0426C110.985 50.071 110.83 50.0852 110.642 50.0852C110.358 50.0852 110.08 50.0241 109.807 49.902C109.537 49.7798 109.313 49.5938 109.134 49.3438C108.958 49.0938 108.869 48.7784 108.869 48.3977V41.8864ZM112.786 50V43.4545H113.791V50H112.786ZM113.297 42.3636C113.101 42.3636 112.932 42.2969 112.79 42.1634C112.651 42.0298 112.581 41.8693 112.581 41.6818C112.581 41.4943 112.651 41.3338 112.79 41.2003C112.932 41.0668 113.101 41 113.297 41C113.493 41 113.661 41.0668 113.8 41.2003C113.942 41.3338 114.013 41.4943 114.013 41.6818C114.013 41.8693 113.942 42.0298 113.8 42.1634C113.661 42.2969 113.493 42.3636 113.297 42.3636ZM115.633 50V43.4545H116.605V44.4773H116.69C116.827 44.1278 117.047 43.8565 117.351 43.6634C117.655 43.4673 118.02 43.3693 118.446 43.3693C118.878 43.3693 119.237 43.4673 119.524 43.6634C119.814 43.8565 120.04 44.1278 120.202 44.4773H120.27C120.437 44.1392 120.689 43.8707 121.024 43.6719C121.359 43.4702 121.761 43.3693 122.23 43.3693C122.815 43.3693 123.294 43.5526 123.666 43.919C124.038 44.2827 124.224 44.8494 124.224 45.6193V50H123.219V45.6193C123.219 45.1364 123.086 44.7912 122.822 44.5838C122.558 44.3764 122.247 44.2727 121.889 44.2727C121.429 44.2727 121.072 44.4119 120.819 44.6903C120.567 44.9659 120.44 45.3153 120.44 45.7386V50H119.417V45.517C119.417 45.1449 119.297 44.8452 119.055 44.6179C118.814 44.3878 118.503 44.2727 118.122 44.2727C117.861 44.2727 117.616 44.3423 117.389 44.4815C117.165 44.6207 116.983 44.8139 116.844 45.0611C116.707 45.3054 116.639 45.5881 116.639 45.9091V50H115.633ZM130.699 44.9205L129.796 45.1761C129.739 45.0256 129.655 44.8793 129.545 44.7372C129.437 44.5923 129.289 44.473 129.101 44.3793C128.914 44.2855 128.674 44.2386 128.381 44.2386C127.981 44.2386 127.647 44.331 127.38 44.5156C127.116 44.6974 126.983 44.929 126.983 45.2102C126.983 45.4602 127.074 45.6577 127.256 45.8026C127.438 45.9474 127.722 46.0682 128.108 46.1648L129.08 46.4034C129.665 46.5455 130.101 46.7628 130.388 47.0554C130.675 47.3452 130.819 47.7187 130.819 48.1761C130.819 48.5511 130.711 48.8864 130.495 49.1818C130.282 49.4773 129.983 49.7102 129.6 49.8807C129.216 50.0511 128.77 50.1364 128.262 50.1364C127.594 50.1364 127.042 49.9915 126.604 49.7017C126.167 49.4119 125.89 48.9886 125.773 48.4318L126.728 48.1932C126.819 48.5455 126.991 48.8097 127.243 48.9858C127.499 49.1619 127.833 49.25 128.245 49.25C128.714 49.25 129.086 49.1506 129.361 48.9517C129.64 48.75 129.779 48.5085 129.779 48.2273C129.779 48 129.699 47.8097 129.54 47.6562C129.381 47.5 129.137 47.3835 128.807 47.3068L127.716 47.0511C127.117 46.9091 126.677 46.6889 126.395 46.3906C126.117 46.0895 125.978 45.7131 125.978 45.2614C125.978 44.892 126.081 44.5653 126.289 44.2812C126.499 43.9972 126.785 43.7741 127.145 43.6122C127.509 43.4503 127.921 43.3693 128.381 43.3693C129.029 43.3693 129.537 43.5114 129.907 43.7955C130.279 44.0795 130.543 44.4545 130.699 44.9205ZM134.992 50.1364C134.401 50.1364 133.882 49.9957 133.436 49.7145C132.993 49.4332 132.646 49.0398 132.396 48.5341C132.149 48.0284 132.026 47.4375 132.026 46.7614C132.026 46.0795 132.149 45.4844 132.396 44.9759C132.646 44.4673 132.993 44.0724 133.436 43.7912C133.882 43.5099 134.401 43.3693 134.992 43.3693C135.583 43.3693 136.1 43.5099 136.543 43.7912C136.989 44.0724 137.335 44.4673 137.583 44.9759C137.833 45.4844 137.958 46.0795 137.958 46.7614C137.958 47.4375 137.833 48.0284 137.583 48.5341C137.335 49.0398 136.989 49.4332 136.543 49.7145C136.1 49.9957 135.583 50.1364 134.992 50.1364ZM134.992 49.233C135.441 49.233 135.81 49.1179 136.1 48.8878C136.389 48.6577 136.604 48.3551 136.743 47.9801C136.882 47.6051 136.952 47.1989 136.952 46.7614C136.952 46.3239 136.882 45.9162 136.743 45.5384C136.604 45.1605 136.389 44.8551 136.1 44.6222C135.81 44.3892 135.441 44.2727 134.992 44.2727C134.543 44.2727 134.173 44.3892 133.884 44.6222C133.594 44.8551 133.379 45.1605 133.24 45.5384C133.101 45.9162 133.031 46.3239 133.031 46.7614C133.031 47.1989 133.101 47.6051 133.24 47.9801C133.379 48.3551 133.594 48.6577 133.884 48.8878C134.173 49.1179 134.543 49.233 134.992 49.233ZM140.498 41.2727V50H139.493V41.2727H140.498ZM142.34 50V43.4545H143.346V50H142.34ZM142.852 42.3636C142.656 42.3636 142.487 42.2969 142.345 42.1634C142.205 42.0298 142.136 41.8693 142.136 41.6818C142.136 41.4943 142.205 41.3338 142.345 41.2003C142.487 41.0668 142.656 41 142.852 41C143.048 41 143.215 41.0668 143.355 41.2003C143.497 41.3338 143.568 41.4943 143.568 41.6818C143.568 41.8693 143.497 42.0298 143.355 42.1634C143.215 42.2969 143.048 42.3636 142.852 42.3636Z" fill="#091A2A"/>
<path d="M5 7V13.5" stroke="#091A2A"/>
</svg>
