<svg width="14" height="14" viewBox="0 0 14 14" fill="none" xmlns="http://www.w3.org/2000/svg">
<path d="M11.3401 7.58334C11.2117 7.58334 11.0776 7.5425 10.9492 7.51334C10.6893 7.45607 10.4339 7.38004 10.1851 7.28584C9.91444 7.18739 9.61698 7.1925 9.34991 7.30019C9.08283 7.40788 8.86502 7.61054 8.73839 7.86917L8.61006 8.13167C8.04189 7.81561 7.5198 7.42306 7.05839 6.965C6.60034 6.5036 6.20779 5.9815 5.89173 5.41334L6.13673 5.25C6.39536 5.12337 6.59802 4.90556 6.70571 4.63849C6.8134 4.37142 6.81851 4.07395 6.72006 3.80334C6.62744 3.55392 6.55144 3.29864 6.49256 3.03917C6.46339 2.91084 6.44006 2.77667 6.42256 2.6425C6.35172 2.23162 6.13651 1.85952 5.81567 1.59323C5.49484 1.32693 5.08946 1.18394 4.67256 1.19H2.92256C2.67116 1.18764 2.4222 1.23948 2.19264 1.34198C1.96307 1.44448 1.75829 1.59524 1.59223 1.784C1.42616 1.97276 1.30272 2.19508 1.2303 2.43584C1.15788 2.67659 1.13819 2.93012 1.17256 3.17917C1.48332 5.62298 2.59941 7.8936 4.34452 9.63238C6.08964 11.3712 8.36431 12.479 10.8092 12.7808H11.0309C11.4611 12.7815 11.8764 12.6236 12.1976 12.3375C12.3821 12.1724 12.5295 11.9701 12.6301 11.7439C12.7306 11.5176 12.782 11.2726 12.7809 11.025V9.275C12.7737 8.86981 12.6262 8.47966 12.3634 8.17114C12.1007 7.86263 11.739 7.65487 11.3401 7.58334ZM11.6317 11.0833C11.6316 11.1662 11.6139 11.248 11.5797 11.3235C11.5455 11.3989 11.4956 11.4662 11.4334 11.5208C11.3684 11.5774 11.2922 11.6197 11.2098 11.6448C11.1274 11.6699 11.0406 11.6774 10.9551 11.6667C8.77042 11.3866 6.7412 10.3871 5.18748 8.82601C3.63376 7.26489 2.64396 5.23095 2.37423 3.045C2.36494 2.95956 2.37308 2.87311 2.39814 2.7909C2.42321 2.70868 2.46468 2.63241 2.52006 2.56667C2.57472 2.50445 2.64201 2.45458 2.71745 2.42038C2.79288 2.38618 2.87473 2.36844 2.95756 2.36834H4.70756C4.84321 2.36532 4.97567 2.40968 5.08214 2.4938C5.18861 2.57791 5.26243 2.6965 5.29089 2.82917C5.31423 2.98862 5.34339 3.14612 5.37839 3.30167C5.44578 3.60917 5.53546 3.91136 5.64673 4.20584L4.83006 4.585C4.76023 4.61704 4.69742 4.66256 4.64523 4.71894C4.59305 4.77531 4.55251 4.84145 4.52595 4.91353C4.49939 4.98562 4.48733 5.06225 4.49047 5.13901C4.49361 5.21577 4.51187 5.29116 4.54423 5.36084C5.38376 7.15911 6.82929 8.60464 8.62756 9.44417C8.76958 9.50251 8.92887 9.50251 9.07089 9.44417C9.14364 9.41815 9.2105 9.37794 9.26758 9.32586C9.32465 9.27379 9.37082 9.2109 9.40339 9.14084L9.76506 8.32417C10.0666 8.43202 10.3744 8.52162 10.6867 8.5925C10.8423 8.6275 10.9998 8.65667 11.1592 8.68C11.2919 8.70847 11.4105 8.78228 11.4946 8.88875C11.5787 8.99522 11.6231 9.12769 11.6201 9.26334L11.6317 11.0833Z" fill="#0F2E4A"/>
</svg>
