<svg xmlns="http://www.w3.org/2000/svg" width="390" height="102" fill="none">
  <path fill="#5200FF" d="M-15.95 47.57 375.5-57.32 390-3.22-1.46 101.65z"/>
  <path fill="#fff" d="M18.22 67.7a4.22 4.22 0 0 1 1.2-4.44 5.98 5.98 0 0 1 7.06-.34l-1.04-3.87c-.72-.3-1.47-.5-2.25-.58a7.96 7.96 0 0 0-2.8.32c-1.2.32-2.24.8-3.15 1.44a7.59 7.59 0 0 0-3.18 5.2 8.42 8.42 0 0 0 .25 3.32c.31 1.17.8 2.17 1.44 3.01a7.51 7.51 0 0 0 5.36 2.92c1.1.1 2.25-.02 3.44-.33 1.1-.3 1.96-.67 2.6-1.13.63-.46 1.18-1 1.65-1.63l-1.03-3.87c-.24.43-.53.85-.87 1.26a5.95 5.95 0 0 1-3.05 1.89c-.8.21-1.6.24-2.37.09a4.22 4.22 0 0 1-3.26-3.25Zm10.87-5.41 2.62 9.77 3.08-.82-2.62-9.78-3.08.83Zm6.63-1.78-3.1 5.16 6.21 4.49 3.78-1.02-6.14-4.5 3.1-5.16-3.85 1.03Zm16.3-1.4-.83-3.54-7.78 10.4.83 3.53 7.78-10.4Zm-7.5-.96-3.1.83 2.82 10.52 2.3-3.82-2.02-7.53Zm6.67-2.58-2.28 3.82 2.02 7.52L54 66.1l-2.82-10.52Zm9.99 2.27 3.75 4.64 2.92-1.49-7.91-7.76-2.97 10.68 3.28-.18.93-5.9Zm5.15 4.95.51 1.91 3.02-.8-1.2-4.45-13.17 3.53 1.2 4.44 3.12-.84-.52-1.9 7.04-1.9Zm3.34-6.14a5.1 5.1 0 0 0 1.44 2.49 5.06 5.06 0 0 0 2.48 1.25c.96.2 1.98.15 3.04-.13a6.41 6.41 0 0 0 2.68-1.4 5.06 5.06 0 0 0 1.54-5.2 5.02 5.02 0 0 0-3.94-3.75 6.41 6.41 0 0 0-3.02.12 6.55 6.55 0 0 0-2.7 1.41 5.06 5.06 0 0 0-1.52 2.32c-.27.9-.27 1.86 0 2.9Zm3.3-.88a2.68 2.68 0 0 1-.04-1.4 2.31 2.31 0 0 1 1.67-1.68 2.27 2.27 0 0 1 2.27.62c.3.32.53.73.67 1.24.13.5.14.97.03 1.4a2.27 2.27 0 0 1-1.65 1.65 2.31 2.31 0 0 1-2.28-.6 2.68 2.68 0 0 1-.67-1.23Zm14.1-1.16 3.34-.9-.71-2.65-2.4.64-.23 2.91Zm.16-7.9 2.62 9.77 3.21-.85-2.62-9.78-3.2.86Zm-2.74.73-3.2.86.74 2.8c.26.96.59 1.74 1 2.36.4.6.93 1.02 1.58 1.24.66.2 1.48.17 2.46-.09l.22-2.9c-.36.1-.67.12-.93.08a1.15 1.15 0 0 1-.64-.37c-.17-.21-.3-.52-.41-.92l-.82-3.06Zm11.16 3.25 7.9-2.11-.63-2.4L95 48.28l.64 2.4Zm4.9-7.55 2.62 9.78 3.08-.83-2.62-9.78-3.08.83Zm-7.46 2 2.62 9.77 3.1-.83-2.61-9.77-3.1.83Zm23.55-6.31 2.62 9.77 3.23-.86-2.61-9.78-3.23.87Zm-10.47 2.8 2.62 9.78 3.23-.86-2.62-9.78-3.23.87Zm3.97 4.7 2.46-.66c.37-.1.67-.08.9.06.25.12.4.32.48.6a1 1 0 0 1 0 .57.8.8 0 0 1-.3.42c-.14.11-.32.2-.57.27l-2.46.66.67 2.48 3.04-.81a4.17 4.17 0 0 0 1.71-.9c.47-.42.78-.94.96-1.55.17-.6.16-1.26-.03-1.95-.28-1.05-.83-1.72-1.65-2.02a4.32 4.32 0 0 0-2.73-.06l-3.04.81.56 2.08Zm14.96-3.8 8.93-2.4a2.93 2.93 0 0 0-.09-.47l-.1-.36a5.58 5.58 0 0 0-1.32-2.5 4.16 4.16 0 0 0-2.22-1.22 6.55 6.55 0 0 0-3.05.18c-1.06.28-1.93.7-2.6 1.24a4.69 4.69 0 0 0-1.66 4.8l.12.53a4.82 4.82 0 0 0 3.72 3.76c.95.22 2.02.17 3.2-.14a7.62 7.62 0 0 0 2.3-.99c.6-.41 1.08-.9 1.42-1.44.33-.56.58-1.19.75-1.87l-3.06.07c-.08.31-.21.6-.38.85-.18.25-.41.46-.7.65-.27.17-.6.32-1 .42-.41.11-.82.12-1.22.03a2.1 2.1 0 0 1-1.07-.67c-.3-.35-.55-.87-.73-1.53l-.1-.52a2.93 2.93 0 0 1-.07-1.4 2 2 0 0 1 .52-1.02c.28-.29.63-.49 1.07-.6.38-.11.72-.12 1.02-.03.3.07.57.22.78.45.23.23.42.53.59.91l-5.53 1.49.48 1.78Zm14.72-9.91.71 2.65 6.87-1.83-.71-2.66-6.87 1.84Zm2-.08 2.51 9.35 3.08-.83-2.5-9.35-3.08.83Zm6.65 3a5.09 5.09 0 0 0 1.44 2.48 5.06 5.06 0 0 0 2.48 1.25c.96.2 1.97.16 3.04-.13a6.41 6.41 0 0 0 2.67-1.4 5.05 5.05 0 0 0 1.55-5.2 5.03 5.03 0 0 0-3.94-3.75 6.41 6.41 0 0 0-3.02.13 6.56 6.56 0 0 0-2.7 1.4 5.06 5.06 0 0 0-1.52 2.33c-.28.9-.28 1.86 0 2.89Zm3.3-.88a2.69 2.69 0 0 1-.04-1.4c.11-.43.31-.79.6-1.08.29-.29.64-.49 1.07-.6a2.27 2.27 0 0 1 2.26.62c.31.31.54.72.67 1.23.14.51.15.98.04 1.4a2.27 2.27 0 0 1-1.65 1.65 2.31 2.31 0 0 1-2.28-.6 2.68 2.68 0 0 1-.68-1.22Zm11.94-3.43.3 1.15 2.84-.76c.22-.06.42-.09.6-.07a1 1 0 0 1 .7.36c.07.1.13.21.16.34.07.24.03.5-.1.75-.1.25-.4.43-.85.55l-2.82.76.54 2.02 3.9-1.05c1.13-.3 1.86-.77 2.2-1.4.36-.67.44-1.36.24-2.1a2.26 2.26 0 0 0-.86-1.36c-.41-.27-.9-.4-1.48-.4s-1.2.1-1.88.27l-3.49.94Zm.11.42 3.28-.87c.6-.17 1.14-.4 1.59-.7.46-.32.8-.7 1.01-1.14.22-.45.25-.95.1-1.5a2.43 2.43 0 0 0-2.34-1.93 4.9 4.9 0 0 0-1.73.17l-3.27.87.54 2.02 2.61-.7c.33-.09.6-.06.82.08a.9.9 0 0 1 .43.57c.03.11.04.23.02.35a.84.84 0 0 1-.1.35c-.07.11-.16.21-.27.3-.1.07-.24.13-.4.18l-2.62.7.33 1.25Zm-3.21-4.6 2.62 9.77 3.08-.82-2.62-9.78-3.08.83Zm15.13 3.3a1.2 1.2 0 0 1 0-.73c.1-.22.26-.42.49-.58.24-.19.54-.33.91-.43a4.2 4.2 0 0 1 2.77.12l-.4-1.5a4.86 4.86 0 0 0-2.13-.36 6.2 6.2 0 0 0-3.58 1.19c-.57.41-.97.9-1.2 1.47a2.87 2.87 0 0 0-.06 1.81c.17.64.47 1.15.89 1.52.43.36.94.58 1.55.68.6.08 1.24.03 1.92-.15a4.84 4.84 0 0 0 1.73-.83c.49-.39.83-.85 1.02-1.37.2-.54.23-1.12.06-1.74l-.66-1.1c.14.52.15.96.03 1.31a1.7 1.7 0 0 1-.63.85 3.05 3.05 0 0 1-1.76.57c-.24-.03-.44-.1-.6-.2a.91.91 0 0 1-.35-.53Zm-2.29-3.5c.13-.15.34-.33.62-.54a6.2 6.2 0 0 1 2.28-1.16c.54-.14 1-.13 1.36.05.37.16.62.44.73.85l1.67 6.25 3.08-.83-1.84-6.88a2.66 2.66 0 0 0-1.06-1.56 3.63 3.63 0 0 0-1.9-.63c-.75-.08-1.56 0-2.44.24-.88.24-1.67.58-2.39 1.03-.7.44-1.29.88-1.77 1.3l1.66 1.87Zm16.58 7.8-3.87-14.45-3.2.86 3.86 14.45 3.21-.86Zm5.43-11.7a5.75 5.75 0 0 0-1.45-2.69 4.64 4.64 0 0 0-4.6-1.3 3.87 3.87 0 0 0-2.96 3.44c-.11.87-.03 1.83.26 2.9a7.46 7.46 0 0 0 1.22 2.63c.54.69 1.17 1.17 1.9 1.45.73.26 1.53.27 2.38.04a4.62 4.62 0 0 0 3.34-3.42c.24-.9.21-1.92-.09-3.05Zm-3.38.9c.14.51.15.97.03 1.39-.12.4-.33.75-.63 1.03a2.58 2.58 0 0 1-2.25.63 2.4 2.4 0 0 1-1.76-1.81c-.14-.52-.15-1-.01-1.4a2.4 2.4 0 0 1 1.65-1.58c.42-.12.84-.14 1.24-.05.4.1.76.29 1.06.58.31.3.53.7.67 1.21Zm14.48-9.12 2.62 9.78 3.23-.87-2.62-9.77-3.23.86Zm-10.47 2.81 2.62 9.78 3.23-.87-2.62-9.77-3.23.86Zm3.97 4.7 2.46-.66c.37-.1.67-.08.9.05.25.12.4.32.49.6a1 1 0 0 1-.01.58.8.8 0 0 1-.3.42c-.14.11-.32.2-.56.26l-2.47.66.67 2.49 3.03-.81a4.17 4.17 0 0 0 1.72-.9c.47-.43.78-.94.95-1.55.18-.6.17-1.26-.02-1.95-.28-1.05-.83-1.72-1.65-2.02a4.32 4.32 0 0 0-2.73-.07l-3.04.82.56 2.08Z"/>
</svg>
