<svg width="50" height="50" viewBox="0 0 50 50" fill="none" xmlns="http://www.w3.org/2000/svg">
<path d="M18.75 35.4167C18.75 37.7179 16.8845 39.5833 14.5833 39.5833C12.2821 39.5833 10.4167 37.7179 10.4167 35.4167M18.75 35.4167C18.75 33.1155 16.8845 31.25 14.5833 31.25C12.2821 31.25 10.4167 33.1155 10.4167 35.4167M18.75 35.4167H31.25M10.4167 35.4167H6.25V22.9167M39.5833 35.4167C39.5833 37.7179 37.7179 39.5833 35.4167 39.5833C33.1155 39.5833 31.25 37.7179 31.25 35.4167M39.5833 35.4167C39.5833 33.1155 37.7179 31.25 35.4167 31.25C33.1155 31.25 31.25 33.1155 31.25 35.4167M39.5833 35.4167H43.75V27.0833C43.75 25.9783 43.311 24.9185 42.5296 24.1371C41.7482 23.3557 40.6884 22.9167 39.5833 22.9167H37.5M6.25 22.9167L10.4167 12.5H29.1667L37.5 22.9167M6.25 22.9167H37.5M25 22.9167V12.5" stroke="#5200FF" stroke-width="3" stroke-linecap="round" stroke-linejoin="round"/>
</svg>
