<svg width="50" height="50" viewBox="0 0 50 50" fill="none" xmlns="http://www.w3.org/2000/svg">
<path d="M18.75 25L22.9167 29.1667L31.25 20.8333M25.0001 6.25C29.8664 10.5554 36.2177 12.797 42.7084 12.5C43.6534 15.7146 43.9425 19.0864 43.5587 22.415C43.1748 25.7435 42.1257 28.961 40.4738 31.8761C38.8219 34.7912 36.6009 37.3445 33.9427 39.3843C31.2845 41.4241 28.2434 42.9087 25.0001 43.75C21.7568 42.9087 18.7156 41.4241 16.0574 39.3843C13.3992 37.3445 11.1782 34.7912 9.5263 31.8761C7.8744 28.961 6.82534 25.7435 6.44147 22.415C6.0576 19.0864 6.34674 15.7146 7.29173 12.5C13.7824 12.797 20.1337 10.5554 25.0001 6.25Z" stroke="#5200FF" stroke-width="3" stroke-linecap="round" stroke-linejoin="round"/>
</svg>
