<svg width="14" height="15" viewBox="0 0 14 15" fill="none" xmlns="http://www.w3.org/2000/svg">
<path d="M10.5 3.11332C9.57178 2.18506 8.31279 1.66357 7.00004 1.66357C5.68729 1.66357 4.4283 2.18506 3.50004 3.11332C2.57178 4.04158 2.05029 5.30057 2.05029 6.61332C2.05029 7.92608 2.57178 9.18506 3.50004 10.1133L6.57421 13.1933C6.62844 13.248 6.69295 13.2914 6.76404 13.321C6.83512 13.3506 6.91137 13.3659 6.98837 13.3659C7.06538 13.3659 7.14162 13.3506 7.21271 13.321C7.28379 13.2914 7.34831 13.248 7.40254 13.1933L10.5 10.0842C11.4244 9.15976 11.9437 7.90602 11.9437 6.59874C11.9437 5.29146 11.4244 4.03772 10.5 3.11332ZM9.66587 9.24999L7.00004 11.9275L4.33421 9.24999C3.80754 8.72284 3.44898 8.05138 3.30386 7.32049C3.15874 6.5896 3.23357 5.83209 3.51888 5.14372C3.8042 4.45535 4.2872 3.86702 4.90682 3.4531C5.52645 3.03918 6.25488 2.81826 7.00004 2.81826C7.7452 2.81826 8.47363 3.03918 9.09326 3.4531C9.71288 3.86702 10.1959 4.45535 10.4812 5.14372C10.7665 5.83209 10.8413 6.5896 10.6962 7.32049C10.5511 8.05138 10.1925 8.72284 9.66587 9.24999ZM5.25004 4.82249C4.77912 5.29486 4.51469 5.93465 4.51469 6.60166C4.51469 7.26866 4.77912 7.90845 5.25004 8.38082C5.5999 8.73128 6.04547 8.97062 6.53084 9.06881C7.01621 9.167 7.51976 9.11966 7.97833 8.93274C8.4369 8.74583 8.83006 8.42765 9.10849 8.01813C9.38691 7.60862 9.5382 7.126 9.54337 6.63082C9.546 6.30019 9.48231 5.97239 9.35607 5.6668C9.22982 5.36121 9.04359 5.08403 8.80837 4.85166C8.57718 4.61516 8.3015 4.42672 7.9972 4.29718C7.6929 4.16763 7.36599 4.09955 7.03527 4.09684C6.70456 4.09413 6.37657 4.15684 6.07019 4.28138C5.76381 4.40592 5.48508 4.58981 5.25004 4.82249ZM7.98587 7.55249C7.76482 7.77692 7.47266 7.9176 7.15936 7.95047C6.84607 7.98334 6.53108 7.90636 6.26825 7.7327C6.00543 7.55903 5.81109 7.29946 5.71846 6.99837C5.62583 6.69728 5.64067 6.37336 5.76043 6.082C5.8802 5.79063 6.09745 5.54991 6.37505 5.401C6.65265 5.25209 6.97335 5.20423 7.28234 5.2656C7.59132 5.32697 7.86939 5.49376 8.069 5.73746C8.26862 5.98116 8.37739 6.28664 8.37671 6.60166C8.36822 6.96173 8.21716 7.30371 7.95671 7.55249H7.98587Z" fill="#0F2E4A"/>
</svg>
