<svg width="136" height="48" viewBox="0 0 136 48" fill="none" xmlns="http://www.w3.org/2000/svg">
<path d="M49.6687 21.1424C49.6687 22.344 49.9222 23.3861 50.4291 24.2686C50.9361 25.1511 51.612 25.8271 52.457 26.2965C53.3019 26.7659 54.2314 27.0006 55.2453 27.0006C56.278 27.0006 57.1793 26.7941 57.9491 26.381C58.7189 25.9491 59.3104 25.3483 59.7235 24.5784C60.1553 23.8086 60.3713 22.8886 60.3713 21.8183C60.3713 20.748 60.1553 19.7529 59.7235 18.8328C59.3104 17.9128 58.6908 17.1711 57.8646 16.6078C57.0384 16.0258 56.0151 15.7347 54.7946 15.7347C53.7807 15.7347 52.8888 15.9694 52.119 16.4388C51.3492 16.8895 50.7483 17.5185 50.3165 18.3259C49.8846 19.1333 49.6687 20.0721 49.6687 21.1424ZM43.8949 21.1424C43.8949 19.5839 44.1672 18.1757 44.7117 16.9176C45.275 15.6408 46.0542 14.5518 47.0494 13.6505C48.0633 12.7305 49.2274 12.0264 50.5418 11.5382C51.8561 11.0312 53.2738 10.7777 54.7946 10.7777C56.3531 10.7777 57.7801 11.0312 59.0757 11.5382C60.39 12.0264 61.5166 12.7305 62.4554 13.6505C63.413 14.5518 64.1547 15.6408 64.6805 16.9176C65.2062 18.1757 65.4691 19.5839 65.4691 21.1424C65.4691 22.682 65.2156 24.0996 64.7086 25.3952C64.2017 26.6908 63.4694 27.8174 62.5118 28.775C61.5542 29.7138 60.4182 30.4461 59.1038 30.9718C57.8083 31.4788 56.3719 31.7323 54.7946 31.7323C53.2174 31.7323 51.7622 31.4788 50.4291 30.9718C49.1148 30.4461 47.96 29.7138 46.9649 28.775C45.9885 27.8174 45.228 26.6908 44.6835 25.3952C44.1578 24.0996 43.8949 22.682 43.8949 21.1424ZM52.8513 22.5506H58.3434L68.1447 31.4506H62.4273L52.8513 22.5506ZM72.5881 26.9443C72.5881 27.2259 72.6539 27.47 72.7853 27.6766C72.9355 27.8643 73.1327 28.0145 73.3768 28.1272C73.6208 28.2211 73.8837 28.268 74.1654 28.268C74.5784 28.268 74.9728 28.1835 75.3483 28.0145C75.7238 27.8268 76.0242 27.5451 76.2496 27.1696C76.4936 26.7753 76.6157 26.2871 76.6157 25.705L77.0663 27.3949C77.0663 28.2211 76.8504 28.9252 76.4185 29.5073C76.0055 30.0893 75.4328 30.5306 74.7005 30.831C73.987 31.1314 73.1984 31.2816 72.3347 31.2816C71.5085 31.2816 70.7387 31.1314 70.0252 30.831C69.3304 30.5118 68.7671 30.0518 68.3353 29.4509C67.9034 28.8313 67.6875 28.0803 67.6875 27.1978C67.6875 25.9585 68.1193 24.9821 68.9831 24.2686C69.8656 23.5551 71.133 23.1984 72.7853 23.1984C73.4988 23.1984 74.1654 23.2641 74.785 23.3955C75.4234 23.527 75.9773 23.7053 76.4467 23.9307C76.9349 24.1372 77.301 24.3719 77.5451 24.6348V26.6908C77.1696 26.3716 76.7002 26.1275 76.1369 25.9585C75.5736 25.7895 74.9821 25.705 74.3625 25.705C73.9307 25.705 73.5833 25.752 73.3204 25.8459C73.0576 25.9397 72.8698 26.0806 72.7571 26.2683C72.6445 26.4373 72.5881 26.6626 72.5881 26.9443ZM70.2223 22.2971L68.6732 19.1145C69.4994 18.7577 70.4476 18.4292 71.5179 18.1287C72.6069 17.8095 73.7617 17.6499 74.9821 17.6499C76.1651 17.6499 77.2259 17.8189 78.1648 18.1569C79.1224 18.4761 79.8734 18.9549 80.4179 19.5933C80.9812 20.2317 81.2629 21.0109 81.2629 21.931V31H76.6157V23.0857C76.6157 22.8041 76.5688 22.5506 76.4749 22.3253C76.3998 22.1 76.2683 21.9122 76.0806 21.762C75.8928 21.593 75.6487 21.4709 75.3483 21.3958C75.0479 21.302 74.7005 21.255 74.3062 21.255C73.7617 21.255 73.1984 21.3207 72.6163 21.4522C72.053 21.5836 71.5554 21.7338 71.1236 21.9028C70.6917 22.0718 70.3913 22.2032 70.2223 22.2971ZM91.8433 23.1139C91.8433 22.4379 91.7307 21.9216 91.5054 21.5648C91.28 21.1893 90.8482 21.0015 90.2098 21.0015C89.8343 21.0015 89.4963 21.0766 89.1959 21.2268C88.9142 21.3771 88.6889 21.6118 88.5199 21.931C88.3697 22.2502 88.2946 22.6445 88.2946 23.1139V31H83.4221V18.0442H88.2946V19.9594C88.6513 19.2835 89.1489 18.7484 89.7873 18.354C90.4445 17.941 91.2707 17.7344 92.2658 17.7344C93.9557 17.7344 95.1574 18.1663 95.8709 19.03C96.5844 19.8749 96.9411 21.0672 96.9411 22.6069V31H91.8433V23.1139ZM109.019 9.03153H113.892V31H109.019V9.03153ZM98.514 24.5221C98.514 23.0388 98.805 21.7995 99.3871 20.8044C99.9879 19.8092 100.748 19.0582 101.668 18.5512C102.607 18.0255 103.584 17.7626 104.598 17.7626C105.687 17.7626 106.654 18.0348 107.499 18.5794C108.343 19.1239 109.01 19.9031 109.498 20.917C110.005 21.9122 110.259 23.1139 110.259 24.5221C110.259 25.9116 110.005 27.1133 109.498 28.1272C109.01 29.1411 108.343 29.9204 107.499 30.4649C106.654 31.0094 105.687 31.2816 104.598 31.2816C103.584 31.2816 102.607 31.0282 101.668 30.5212C100.748 29.9955 99.9879 29.235 99.3871 28.2399C98.805 27.2259 98.514 25.9867 98.514 24.5221ZM103.64 24.5221C103.64 25.0854 103.762 25.5924 104.006 26.043C104.25 26.4936 104.579 26.841 104.992 27.0851C105.405 27.3292 105.856 27.4512 106.344 27.4512C106.776 27.4512 107.198 27.3386 107.611 27.1133C108.024 26.8692 108.362 26.5312 108.625 26.0993C108.888 25.6675 109.019 25.1417 109.019 24.5221C109.019 23.9025 108.888 23.3768 108.625 22.9449C108.362 22.513 108.024 22.1844 107.611 21.9591C107.198 21.715 106.776 21.593 106.344 21.593C105.856 21.593 105.405 21.715 104.992 21.9591C104.579 22.2032 104.25 22.5506 104.006 23.0012C103.762 23.4331 103.64 23.94 103.64 24.5221ZM115.775 13.3407C115.775 12.5897 116.038 11.9794 116.564 11.51C117.108 11.0406 117.756 10.8059 118.507 10.8059C119.277 10.8059 119.925 11.0406 120.45 11.51C120.995 11.9794 121.267 12.5897 121.267 13.3407C121.267 14.073 120.995 14.6739 120.45 15.1433C119.925 15.6127 119.277 15.8474 118.507 15.8474C117.756 15.8474 117.108 15.6127 116.564 15.1433C116.038 14.6739 115.775 14.073 115.775 13.3407ZM116.169 18.0442H120.845V31H116.169V18.0442ZM123.189 9.03153H128.062V31H123.189V9.03153Z" fill="#222222"/>
<path opacity="0.8" d="M57.616 40.8928C57.616 41.3998 57.7287 41.8473 57.954 42.2353C58.1856 42.6234 58.486 42.9269 58.8553 43.146C59.2245 43.3651 59.6251 43.4746 60.057 43.4746C60.3699 43.4746 60.6547 43.4339 60.9113 43.3525C61.1742 43.2712 61.412 43.1585 61.6248 43.0146C61.8376 42.8644 62.0191 42.6922 62.1693 42.4982V43.5497C61.8939 43.7938 61.5935 43.9753 61.2681 44.0942C60.9426 44.2131 60.5389 44.2726 60.057 44.2726C59.6001 44.2726 59.1713 44.1912 58.7708 44.0285C58.3765 43.8595 58.0291 43.6248 57.7287 43.3244C57.4283 43.0177 57.1936 42.6578 57.0246 42.2447C56.8556 41.8317 56.7711 41.381 56.7711 40.8928C56.7711 40.4046 56.8556 39.954 57.0246 39.5409C57.1936 39.1278 57.4283 38.7711 57.7287 38.4707C58.0291 38.164 58.3765 37.9293 58.7708 37.7665C59.1713 37.5976 59.6001 37.5131 60.057 37.5131C60.5389 37.5131 60.9426 37.5725 61.2681 37.6914C61.5935 37.8104 61.8939 37.9919 62.1693 38.236V39.2874C62.0191 39.0934 61.8376 38.9244 61.6248 38.7805C61.412 38.6303 61.1742 38.5145 60.9113 38.4331C60.6547 38.3517 60.3699 38.3111 60.057 38.3111C59.6251 38.3111 59.2245 38.4206 58.8553 38.6397C58.486 38.8587 58.1856 39.1623 57.954 39.5503C57.7287 39.9321 57.616 40.3796 57.616 40.8928ZM64.2776 36.8559V44.1787H63.5266V36.8559H64.2776ZM66.2961 41.55C66.2961 41.1933 66.2179 40.9241 66.0614 40.7426C65.9112 40.5611 65.6828 40.4704 65.3761 40.4704C65.157 40.4704 64.963 40.5173 64.794 40.6112C64.6313 40.7051 64.503 40.8334 64.4091 40.9961C64.3215 41.1588 64.2776 41.3435 64.2776 41.55H64.0336C64.0336 41.2058 64.0993 40.9022 64.2307 40.6393C64.3621 40.3702 64.5405 40.1574 64.7658 40.0009C64.9974 39.8445 65.2634 39.7662 65.5638 39.7662C65.8643 39.7662 66.124 39.8288 66.3431 39.954C66.5684 40.0792 66.7405 40.2669 66.8594 40.5173C66.9846 40.7677 67.0472 41.0806 67.0472 41.4561V44.1787H66.2961V41.55ZM68.7971 42.8456C68.7971 43.0083 68.8346 43.1491 68.9097 43.2681C68.9911 43.387 69.1006 43.4777 69.2383 43.5403C69.3823 43.5966 69.545 43.6248 69.7265 43.6248C69.9581 43.6248 70.1646 43.5779 70.3461 43.484C70.5339 43.3901 70.681 43.2587 70.7874 43.0897C70.9 42.9144 70.9563 42.7141 70.9563 42.4888L71.1066 43.0521C71.1066 43.3275 71.0221 43.556 70.8531 43.7375C70.6903 43.919 70.4869 44.0535 70.2428 44.1412C70.005 44.2288 69.7672 44.2726 69.5293 44.2726C69.2665 44.2726 69.0192 44.2194 68.7877 44.113C68.5623 44.0003 68.3808 43.8407 68.2431 43.6342C68.1055 43.4277 68.0366 43.1773 68.0366 42.8831C68.0366 42.4638 68.1837 42.1289 68.4779 41.8786C68.7783 41.622 69.1945 41.4937 69.7265 41.4937C70.0394 41.4937 70.2992 41.5312 70.5057 41.6063C70.7185 41.6752 70.8875 41.7565 71.0127 41.8504C71.1379 41.9381 71.2223 42.01 71.2662 42.0664V42.5076C71.0471 42.3574 70.8218 42.251 70.5902 42.1884C70.3586 42.1196 70.1114 42.0851 69.8485 42.0851C69.6044 42.0851 69.4042 42.1164 69.2477 42.179C69.0975 42.2416 68.9848 42.3292 68.9097 42.4419C68.8346 42.5545 68.7971 42.6891 68.7971 42.8456ZM68.6844 40.8553L68.3183 40.3014C68.481 40.1825 68.7032 40.0635 68.9848 39.9446C69.2727 39.8257 69.617 39.7662 70.0175 39.7662C70.3555 39.7662 70.6497 39.8194 70.9 39.9258C71.1566 40.026 71.3538 40.1731 71.4915 40.3671C71.6354 40.5611 71.7074 40.7989 71.7074 41.0806V44.1787H70.9563V41.1839C70.9563 41.0337 70.9313 40.9116 70.8812 40.8177C70.8312 40.7176 70.7592 40.6393 70.6653 40.583C70.5777 40.5267 70.4744 40.486 70.3555 40.461C70.2366 40.4359 70.1114 40.4234 69.98 40.4234C69.7672 40.4234 69.5731 40.4485 69.3979 40.4985C69.2289 40.5486 69.085 40.6081 68.966 40.6769C68.8471 40.7457 68.7532 40.8052 68.6844 40.8553ZM73.7301 39.8601V44.1787H72.979V39.8601H73.7301ZM75.035 40.6863C74.9349 40.6112 74.8441 40.558 74.7628 40.5267C74.6814 40.4891 74.5781 40.4704 74.453 40.4704C74.2652 40.4704 74.1181 40.5173 74.0117 40.6112C73.9053 40.7051 73.8302 40.8334 73.7864 40.9961C73.7488 41.1588 73.7301 41.3435 73.7301 41.55H73.3921C73.3921 41.2058 73.4515 40.9022 73.5705 40.6393C73.6956 40.3702 73.8552 40.1574 74.0493 40.0009C74.2433 39.8445 74.4404 39.7662 74.6407 39.7662C74.7972 39.7662 74.9411 39.7881 75.0726 39.832C75.2103 39.8695 75.3354 39.9477 75.4481 40.0667L75.035 40.6863ZM75.684 42.0194C75.684 41.5813 75.781 41.1933 75.975 40.8553C76.1753 40.5173 76.4444 40.2513 76.7824 40.0573C77.1204 39.8633 77.499 39.7662 77.9184 39.7662C78.344 39.7662 78.7226 39.8633 79.0544 40.0573C79.3923 40.2513 79.6583 40.5173 79.8524 40.8553C80.0526 41.1933 80.1528 41.5813 80.1528 42.0194C80.1528 42.4513 80.0526 42.8393 79.8524 43.1836C79.6583 43.5215 79.3923 43.7875 79.0544 43.9816C78.7226 44.1756 78.344 44.2726 77.9184 44.2726C77.499 44.2726 77.1204 44.1756 76.7824 43.9816C76.4444 43.7875 76.1753 43.5215 75.975 43.1836C75.781 42.8393 75.684 42.4513 75.684 42.0194ZM76.4444 42.0194C76.4444 42.3198 76.507 42.5858 76.6322 42.8174C76.7636 43.049 76.9389 43.2336 77.1579 43.3713C77.3833 43.5028 77.6367 43.5685 77.9184 43.5685C78.2 43.5685 78.4504 43.5028 78.6694 43.3713C78.8948 43.2336 79.07 43.049 79.1952 42.8174C79.3266 42.5858 79.3923 42.3198 79.3923 42.0194C79.3923 41.719 79.3266 41.453 79.1952 41.2214C79.07 40.9836 78.8948 40.7989 78.6694 40.6675C78.4504 40.5361 78.2 40.4704 77.9184 40.4704C77.6367 40.4704 77.3833 40.5361 77.1579 40.6675C76.9389 40.7989 76.7636 40.9836 76.6322 41.2214C76.507 41.453 76.4444 41.719 76.4444 42.0194ZM80.8935 44.4604H81.6539C81.6539 44.6669 81.7103 44.8578 81.8229 45.033C81.9356 45.2145 82.0952 45.3585 82.3017 45.4649C82.5083 45.5776 82.7524 45.6339 83.034 45.6339C83.2531 45.6339 83.469 45.5807 83.6818 45.4743C83.8946 45.3679 84.0699 45.1989 84.2075 44.9673C84.3515 44.742 84.4235 44.4478 84.4235 44.0848V39.8601H85.1745V44.0848C85.1745 44.5793 85.0713 44.9924 84.8647 45.3241C84.6582 45.6621 84.3922 45.9155 84.0667 46.0845C83.7413 46.2535 83.397 46.338 83.034 46.338C82.6147 46.338 82.2423 46.2598 81.9168 46.1033C81.5976 45.9468 81.3473 45.7246 81.1658 45.4367C80.9843 45.1551 80.8935 44.8296 80.8935 44.4604ZM80.809 42.0194C80.809 41.55 80.906 41.1494 81.1 40.8177C81.2941 40.4797 81.5538 40.22 81.8793 40.0385C82.2047 39.857 82.5615 39.7662 82.9495 39.7662C83.3125 39.7662 83.6286 39.857 83.8977 40.0385C84.1669 40.22 84.3765 40.4797 84.5267 40.8177C84.6832 41.1494 84.7615 41.55 84.7615 42.0194C84.7615 42.4826 84.6832 42.8831 84.5267 43.2211C84.3765 43.5591 84.1669 43.8188 83.8977 44.0003C83.6286 44.1818 83.3125 44.2726 82.9495 44.2726C82.5615 44.2726 82.2047 44.1818 81.8793 44.0003C81.5538 43.8188 81.2941 43.5591 81.1 43.2211C80.906 42.8831 80.809 42.4826 80.809 42.0194ZM81.5695 42.0194C81.5695 42.3511 81.6352 42.6328 81.7666 42.8644C81.9043 43.0959 82.0858 43.2712 82.3111 43.3901C82.5364 43.509 82.7805 43.5685 83.0434 43.5685C83.2625 43.5685 83.4784 43.509 83.6912 43.3901C83.904 43.2712 84.0792 43.0959 84.2169 42.8644C84.3546 42.6328 84.4235 42.3511 84.4235 42.0194C84.4235 41.7691 84.3828 41.55 84.3014 41.3622C84.2201 41.1682 84.1105 41.0055 83.9728 40.8741C83.8414 40.7426 83.6943 40.6425 83.5316 40.5736C83.3689 40.5048 83.2061 40.4704 83.0434 40.4704C82.7805 40.4704 82.5364 40.5298 82.3111 40.6487C82.0858 40.7677 81.9043 40.9429 81.7666 41.1745C81.6352 41.4061 81.5695 41.6877 81.5695 42.0194ZM86.7709 37.6069H87.6628L86.8178 40.4234H86.3015L86.7709 37.6069ZM88.0886 42.0194C88.0886 41.5813 88.1856 41.1933 88.3796 40.8553C88.5799 40.5173 88.849 40.2513 89.187 40.0573C89.525 39.8633 89.9036 39.7662 90.323 39.7662C90.7486 39.7662 91.1272 39.8633 91.4589 40.0573C91.7969 40.2513 92.0629 40.5173 92.2569 40.8553C92.4572 41.1933 92.5574 41.5813 92.5574 42.0194C92.5574 42.4513 92.4572 42.8393 92.2569 43.1836C92.0629 43.5215 91.7969 43.7875 91.4589 43.9816C91.1272 44.1756 90.7486 44.2726 90.323 44.2726C89.9036 44.2726 89.525 44.1756 89.187 43.9816C88.849 43.7875 88.5799 43.5215 88.3796 43.1836C88.1856 42.8393 88.0886 42.4513 88.0886 42.0194ZM88.849 42.0194C88.849 42.3198 88.9116 42.5858 89.0368 42.8174C89.1682 43.049 89.3435 43.2336 89.5625 43.3713C89.7878 43.5028 90.0413 43.5685 90.323 43.5685C90.6046 43.5685 90.855 43.5028 91.074 43.3713C91.2993 43.2336 91.4746 43.049 91.5998 42.8174C91.7312 42.5858 91.7969 42.3198 91.7969 42.0194C91.7969 41.719 91.7312 41.453 91.5998 41.2214C91.4746 40.9836 91.2993 40.7989 91.074 40.6675C90.855 40.5361 90.6046 40.4704 90.323 40.4704C90.0413 40.4704 89.7878 40.5361 89.5625 40.6675C89.3435 40.7989 89.1682 40.9836 89.0368 41.2214C88.9116 41.453 88.849 41.719 88.849 42.0194ZM96.3586 41.55C96.3586 41.1933 96.2804 40.9241 96.1239 40.7426C95.9675 40.5611 95.739 40.4704 95.4386 40.4704C95.2195 40.4704 95.0255 40.5173 94.8565 40.6112C94.6938 40.6988 94.5655 40.824 94.4716 40.9867C94.384 41.1494 94.3402 41.3372 94.3402 41.55V44.1787H93.5891V39.8601H94.3402V40.5361C94.4841 40.2732 94.6625 40.0792 94.8753 39.954C95.0944 39.8288 95.3447 39.7662 95.6264 39.7662C96.0832 39.7662 96.4431 39.9196 96.706 40.2263C96.9751 40.5267 97.1097 40.9366 97.1097 41.4561V44.1787H96.3586V41.55ZM98.5216 36.8559H99.2727V44.1787H98.5216V36.8559ZM100.685 38.0764C100.685 37.9324 100.735 37.8104 100.836 37.7102C100.942 37.6101 101.064 37.56 101.202 37.56C101.346 37.56 101.468 37.6101 101.568 37.7102C101.668 37.8104 101.718 37.9324 101.718 38.0764C101.718 38.2141 101.668 38.3361 101.568 38.4425C101.468 38.5426 101.346 38.5927 101.202 38.5927C101.064 38.5927 100.942 38.5426 100.836 38.4425C100.735 38.3361 100.685 38.2141 100.685 38.0764ZM100.826 39.8601H101.577V44.1787H100.826V39.8601ZM103.077 36.8559H103.828V44.1787H103.077V36.8559ZM105.424 39.8601H106.363L104.485 41.6439L106.551 44.1787H105.612L103.547 41.6439L105.424 39.8601ZM109.416 39.8601H111.576V40.5642H109.416V39.8601ZM110.12 38.358H110.872V44.1787H110.12V38.358ZM112.329 38.0764C112.329 37.9324 112.379 37.8104 112.479 37.7102C112.586 37.6101 112.708 37.56 112.845 37.56C112.989 37.56 113.111 37.6101 113.211 37.7102C113.312 37.8104 113.362 37.9324 113.362 38.0764C113.362 38.2141 113.312 38.3361 113.211 38.4425C113.111 38.5426 112.989 38.5927 112.845 38.5927C112.708 38.5927 112.586 38.5426 112.479 38.4425C112.379 38.3361 112.329 38.2141 112.329 38.0764ZM112.47 39.8601H113.221V44.1787H112.47V39.8601ZM120.682 41.4561V44.1787H119.931V41.55C119.931 41.1807 119.862 40.9085 119.725 40.7332C119.593 40.558 119.387 40.4704 119.105 40.4704C118.898 40.4704 118.72 40.5142 118.57 40.6018C118.42 40.6832 118.304 40.8052 118.223 40.9679C118.141 41.1307 118.1 41.3247 118.1 41.55V44.1787H117.349V41.55C117.349 41.1807 117.281 40.9085 117.143 40.7332C117.011 40.558 116.805 40.4704 116.523 40.4704C116.317 40.4704 116.138 40.5142 115.988 40.6018C115.838 40.6832 115.722 40.8052 115.641 40.9679C115.559 41.1307 115.519 41.3247 115.519 41.55V44.1787H114.768V39.8601H115.519V40.4891C115.65 40.245 115.813 40.0635 116.007 39.9446C116.207 39.8257 116.442 39.7662 116.711 39.7662C117.011 39.7662 117.268 39.8382 117.481 39.9822C117.7 40.1199 117.86 40.317 117.96 40.5736C118.11 40.3045 118.298 40.1042 118.523 39.9728C118.748 39.8351 119.005 39.7662 119.293 39.7662C119.587 39.7662 119.837 39.832 120.044 39.9634C120.25 40.0948 120.407 40.2889 120.513 40.5455C120.626 40.7958 120.682 41.0994 120.682 41.4561ZM122.271 42.855C122.359 42.9864 122.459 43.1085 122.572 43.2211C122.684 43.3338 122.813 43.4245 122.957 43.4934C123.107 43.556 123.27 43.5873 123.445 43.5873C123.658 43.5873 123.824 43.5403 123.943 43.4464C124.068 43.3463 124.13 43.2117 124.13 43.0427C124.13 42.8925 124.08 42.7673 123.98 42.6672C123.886 42.5608 123.764 42.4732 123.614 42.4043C123.464 42.3292 123.304 42.2604 123.135 42.1978C122.947 42.1227 122.756 42.0351 122.562 41.9349C122.375 41.8285 122.215 41.694 122.084 41.5312C121.958 41.3622 121.896 41.1526 121.896 40.9022C121.896 40.6456 121.962 40.4328 122.093 40.2638C122.231 40.0948 122.406 39.9697 122.619 39.8883C122.838 39.8069 123.063 39.7662 123.295 39.7662C123.526 39.7662 123.742 39.8038 123.943 39.8789C124.149 39.954 124.331 40.0541 124.487 40.1793C124.644 40.3045 124.766 40.4485 124.853 40.6112L124.252 40.9961C124.133 40.8334 123.983 40.6988 123.802 40.5924C123.626 40.486 123.426 40.4328 123.201 40.4328C123.044 40.4328 122.91 40.4672 122.797 40.5361C122.684 40.6049 122.628 40.7113 122.628 40.8553C122.628 40.9679 122.672 41.0681 122.76 41.1557C122.847 41.2433 122.96 41.3216 123.098 41.3904C123.235 41.4593 123.379 41.525 123.529 41.5876C123.78 41.6877 124.008 41.7972 124.215 41.9161C124.421 42.0288 124.584 42.1665 124.703 42.3292C124.828 42.492 124.891 42.7016 124.891 42.9582C124.891 43.3338 124.753 43.6467 124.478 43.8971C124.209 44.1474 123.852 44.2726 123.407 44.2726C123.119 44.2726 122.86 44.2225 122.628 44.1224C122.397 44.016 122.199 43.8814 122.037 43.7187C121.88 43.556 121.761 43.3901 121.68 43.2211L122.271 42.855ZM125.504 42.0194C125.504 41.5813 125.601 41.1933 125.795 40.8553C125.995 40.5173 126.264 40.2513 126.602 40.0573C126.94 39.8633 127.319 39.7662 127.738 39.7662C128.164 39.7662 128.543 39.8633 128.874 40.0573C129.212 40.2513 129.478 40.5173 129.672 40.8553C129.873 41.1933 129.973 41.5813 129.973 42.0194C129.973 42.4513 129.873 42.8393 129.672 43.1836C129.478 43.5215 129.212 43.7875 128.874 43.9816C128.543 44.1756 128.164 44.2726 127.738 44.2726C127.319 44.2726 126.94 44.1756 126.602 43.9816C126.264 43.7875 125.995 43.5215 125.795 43.1836C125.601 42.8393 125.504 42.4513 125.504 42.0194ZM126.264 42.0194C126.264 42.3198 126.327 42.5858 126.452 42.8174C126.584 43.049 126.759 43.2336 126.978 43.3713C127.203 43.5028 127.457 43.5685 127.738 43.5685C128.02 43.5685 128.27 43.5028 128.489 43.3713C128.715 43.2336 128.89 43.049 129.015 42.8174C129.147 42.5858 129.212 42.3198 129.212 42.0194C129.212 41.719 129.147 41.453 129.015 41.2214C128.89 40.9836 128.715 40.7989 128.489 40.6675C128.27 40.5361 128.02 40.4704 127.738 40.4704C127.457 40.4704 127.203 40.5361 126.978 40.6675C126.759 40.7989 126.584 40.9836 126.452 41.2214C126.327 41.453 126.264 41.719 126.264 42.0194ZM131.005 36.8559H131.756V44.1787H131.005V36.8559ZM133.168 38.0764C133.168 37.9324 133.218 37.8104 133.318 37.7102C133.425 37.6101 133.547 37.56 133.685 37.56C133.829 37.56 133.951 37.6101 134.051 37.7102C134.151 37.8104 134.201 37.9324 134.201 38.0764C134.201 38.2141 134.151 38.3361 134.051 38.4425C133.951 38.5426 133.829 38.5927 133.685 38.5927C133.547 38.5927 133.425 38.5426 133.318 38.4425C133.218 38.3361 133.168 38.2141 133.168 38.0764ZM133.309 39.8601H134.06V44.1787H133.309V39.8601Z" fill="#222222"/>
<path d="M2 42.6663L30.4582 14.8124C35.0406 10.3274 31.8651 2.54321 25.4531 2.54321V2.54321C19.0411 2.54321 15.8657 10.3274 20.448 14.8124L48.9062 42.6663M23.2852 31.0923L35.8986 43.0521M21.7085 39.1941L15.4018 45.3669" stroke="#222222" stroke-width="4.69412"/>
</svg>
