<svg xmlns="http://www.w3.org/2000/svg" width="173" height="61" fill="none">
  <path fill="#fff" d="M63.53 27.4c0-1.37.28-2.57.83-3.6a6.03 6.03 0 0 1 2.3-2.41c.99-.6 2.13-.9 3.42-.9a6.64 6.64 0 0 1 6.3 3.96c.56 1.17.83 2.45.83 3.81a7.1 7.1 0 0 1-.83 3.53 5.67 5.67 0 0 1-2.26 2.3 7.2 7.2 0 0 1-3.46.8c-1.3 0-2.48-.3-3.56-.9a6.72 6.72 0 0 1-2.6-2.6 7.89 7.89 0 0 1-.97-3.99Zm-7.38 0a13.08 13.08 0 0 0 3.92 9.76 13.92 13.92 0 0 0 4.43 2.8c1.7.65 3.57.98 5.58.98a15 15 0 0 0 5.51-.98c1.68-.67 3.13-1.6 4.36-2.8a12.45 12.45 0 0 0 2.8-4.32c.65-1.66.98-3.47.98-5.44 0-2-.34-3.8-1.01-5.4a11.85 11.85 0 0 0-2.84-4.18 12.1 12.1 0 0 0-4.32-2.7 14.9 14.9 0 0 0-5.48-.97c-1.94 0-3.75.33-5.43.97a13.64 13.64 0 0 0-4.47 2.7A12.2 12.2 0 0 0 57.2 22c-.7 1.6-1.05 3.4-1.05 5.4Zm11.45 1.8 12.24 11.38h7.3L74.63 29.2H67.6Zm25.23 5.62c0-.36.07-.65.21-.87.15-.24.39-.42.72-.54.34-.12.78-.18 1.34-.18.79 0 1.54.11 2.26.33.72.21 1.32.52 1.8.93v-2.63a4.05 4.05 0 0 0-1.4-.9 9.2 9.2 0 0 0-2.12-.68 12.3 12.3 0 0 0-2.56-.25c-2.11 0-3.73.45-4.86 1.37a4.6 4.6 0 0 0-1.66 3.74c0 1.13.28 2.09.83 2.88a5.37 5.37 0 0 0 2.16 1.76c.91.39 1.9.58 2.95.58 1.1 0 2.12-.2 3.03-.58a4.9 4.9 0 0 0 2.2-1.69 4.4 4.4 0 0 0 .82-2.7l-.57-2.16a3.5 3.5 0 0 1-.47 1.87c-.29.48-.67.84-1.15 1.08-.48.22-.99.33-1.52.33-.36 0-.7-.06-1-.18a2.05 2.05 0 0 1-.76-.58 1.7 1.7 0 0 1-.25-.93Zm-3.03-5.94a13.99 13.99 0 0 1 3.06-1.08 9.8 9.8 0 0 1 2.16-.26c.5 0 .95.06 1.34.18.38.1.7.26.93.47.24.2.41.43.5.72.13.29.19.61.19.97V40h5.94V28.4c0-1.17-.36-2.16-1.08-2.98a6.3 6.3 0 0 0-2.88-1.84c-1.2-.43-2.56-.64-4.07-.64-1.56 0-3.04.2-4.43.6-1.37.4-2.58.81-3.64 1.27l1.98 4.07Zm27.64 1.04V40h6.52V29.27c0-1.97-.46-3.49-1.37-4.57-.92-1.1-2.45-1.66-4.61-1.66-1.27 0-2.33.27-3.17.8a5.24 5.24 0 0 0-1.9 2.05v-2.45h-6.23V40h6.22V29.92c0-.6.1-1.1.3-1.51.2-.41.5-.71.86-.9.38-.2.81-.29 1.3-.29.8 0 1.36.24 1.65.72.28.46.43 1.12.43 1.98Zm21.95-18V40h6.23V11.92h-6.23Zm-13.42 19.8a9.4 9.4 0 0 0 1.11 4.75A8.08 8.08 0 0 0 130 39.4c1.2.65 2.45.97 3.74.97a6.7 6.7 0 0 0 6.27-4.03c.64-1.3.97-2.83.97-4.61 0-1.8-.33-3.34-.97-4.6a6.7 6.7 0 0 0-6.26-4.03 7.8 7.8 0 0 0-6.66 3.89 9.28 9.28 0 0 0-1.12 4.74Zm6.55 0c0-.74.15-1.4.47-1.94a3.37 3.37 0 0 1 2.98-1.8c.56 0 1.1.15 1.62.46.53.3.96.71 1.3 1.26.34.56.5 1.23.5 2.02 0 .8-.16 1.46-.5 2.02a3.35 3.35 0 0 1-5.9-.07 4.01 4.01 0 0 1-.47-1.95Zm15.5-14.3c0 .94.34 1.71 1.02 2.31.7.6 1.52.9 2.48.9.98 0 1.81-.3 2.48-.9a2.9 2.9 0 0 0 1.05-2.3c0-.96-.35-1.74-1.05-2.34a3.6 3.6 0 0 0-2.48-.9c-.96 0-1.79.3-2.48.9-.67.6-1.01 1.38-1.01 2.34Zm.51 6.02V40h5.98V23.44h-5.98Zm8.98-11.52V40h6.22V11.92h-6.22Z"/>
  <path fill="#fff" d="M73.56 51.8c0-.66.14-1.23.43-1.72.3-.5.68-.88 1.15-1.16.48-.28.99-.42 1.54-.42a3.6 3.6 0 0 1 2 .6c.28.18.5.4.7.65V48.4a3.58 3.58 0 0 0-1.15-.7 4.55 4.55 0 0 0-1.55-.22 4.19 4.19 0 0 0-2.98 1.22c-.38.39-.68.84-.9 1.37-.21.53-.32 1.1-.32 1.73a4.52 4.52 0 0 0 1.22 3.1c.39.4.83.7 1.34.9.5.22 1.06.32 1.64.32.62 0 1.13-.08 1.55-.23.41-.15.8-.38 1.15-.7v-1.34a3.22 3.22 0 0 1-2.7 1.25c-.55 0-1.06-.14-1.54-.42a3.28 3.28 0 0 1-1.58-2.88Zm8.51-5.16h-.96V56h.96v-9.36Zm2.58 6V56h.96v-3.48c0-.48-.08-.88-.24-1.2a1.56 1.56 0 0 0-.66-.72 1.97 1.97 0 0 0-1-.24c-.38 0-.72.1-1.01.3-.29.2-.52.47-.69.82-.16.33-.25.72-.25 1.16h.31c0-.26.06-.5.17-.7.12-.22.29-.38.5-.5.21-.12.46-.18.74-.18.4 0 .68.12.87.35.2.23.3.57.3 1.03Zm3.2 1.66c0-.2.05-.38.15-.52.1-.14.24-.26.43-.34.2-.08.45-.12.77-.12a3.31 3.31 0 0 1 1.8.54v-.56a2.22 2.22 0 0 0-.97-.59c-.26-.1-.6-.14-.99-.14-.68 0-1.21.16-1.6.49a1.6 1.6 0 0 0-.56 1.28 1.7 1.7 0 0 0 .96 1.58c.3.13.61.2.95.2.3 0 .6-.06.9-.17.32-.11.58-.28.79-.51.22-.24.32-.53.32-.88l-.19-.72a1.39 1.39 0 0 1-.78 1.27c-.23.12-.5.18-.79.18a1.7 1.7 0 0 1-.62-.1 1 1 0 0 1-.42-.35.99.99 0 0 1-.15-.54Zm-.14-2.55c.09-.06.2-.14.36-.23a2.55 2.55 0 0 1 1.77-.27c.16.03.29.08.4.15.12.08.21.18.28.3a1 1 0 0 1 .1.47V56h.95v-3.96c0-.36-.09-.66-.27-.91a1.62 1.62 0 0 0-.76-.57c-.32-.13-.7-.2-1.13-.2a3.45 3.45 0 0 0-2.17.68l.47.71Zm6.45-1.27h-.96V56h.96v-5.52Zm1.66 1.06.53-.8c-.14-.15-.3-.25-.48-.3a1.74 1.74 0 0 0-.55-.08c-.26 0-.5.1-.76.3-.24.2-.45.47-.6.82a2.8 2.8 0 0 0-.24 1.16h.44c0-.26.02-.5.07-.7.05-.22.15-.38.29-.5a.82.82 0 0 1 .56-.18c.16 0 .3.02.4.07.1.04.22.11.34.2Zm.83 1.7a2.8 2.8 0 0 0 2.86 2.88 2.82 2.82 0 0 0 2.47-1.4c.26-.43.39-.93.39-1.48a2.86 2.86 0 0 0-1.4-2.5c-.43-.26-.92-.38-1.46-.38a2.86 2.86 0 0 0-2.48 1.4c-.25.42-.38.92-.38 1.48Zm.98 0c0-.38.08-.72.24-1.02.16-.3.39-.54.67-.7.29-.18.61-.26.97-.26a1.83 1.83 0 0 1 1.63.96c.17.3.25.64.25 1.02s-.08.72-.25 1.02a1.83 1.83 0 0 1-1.63.96 1.9 1.9 0 0 1-.97-.25c-.28-.18-.5-.41-.67-.71-.16-.3-.24-.64-.24-1.02Zm5.68 3.12a2.25 2.25 0 0 0 1.31 2.1 3.26 3.26 0 0 0 2.75-.02c.41-.22.75-.54 1.02-.98.26-.42.4-.95.4-1.58v-5.4h-.97v5.4c0 .46-.09.84-.27 1.13-.18.3-.4.51-.67.65-.27.13-.55.2-.83.2-.36 0-.67-.07-.94-.22a1.52 1.52 0 0 1-.6-.55 1.33 1.33 0 0 1-.23-.73h-.97Zm-.1-3.12c0 .6.12 1.1.37 1.54.25.43.58.76 1 1 .4.22.86.34 1.36.34.47 0 .87-.12 1.21-.35.35-.23.61-.56.8-1 .2-.43.3-.94.3-1.53 0-.6-.1-1.11-.3-1.54-.19-.43-.45-.76-.8-1a2.12 2.12 0 0 0-1.2-.34c-.5 0-.96.12-1.38.35-.41.23-.74.56-1 1a3 3 0 0 0-.36 1.53Zm.97 0c0-.42.08-.78.25-1.08.17-.3.4-.52.7-.67.28-.15.6-.23.93-.23.2 0 .42.04.63.13.2.09.4.22.56.39.17.16.31.37.42.62.1.24.16.52.16.84 0 .42-.1.78-.27 1.08a1.8 1.8 0 0 1-1.5.9c-.34 0-.65-.08-.94-.23a1.75 1.75 0 0 1-.7-.67c-.16-.3-.24-.66-.24-1.08Zm6.65-5.64-.6 3.6h.66l1.08-3.6h-1.14Zm1.68 5.64c0 .55.12 1.05.37 1.49a2.8 2.8 0 0 0 2.49 1.39 2.82 2.82 0 0 0 2.47-1.4c.25-.43.38-.93.38-1.48a2.86 2.86 0 0 0-1.4-2.5c-.43-.26-.91-.38-1.45-.38a2.86 2.86 0 0 0-2.49 1.4c-.25.42-.37.92-.37 1.48Zm.97 0c0-.38.08-.72.24-1.02.17-.3.4-.54.67-.7.3-.18.62-.26.98-.26s.68.08.96.25a2.03 2.03 0 0 1 .92 1.73c0 .38-.08.72-.25 1.02a1.83 1.83 0 0 1-1.63.96 1.9 1.9 0 0 1-.98-.25c-.28-.18-.5-.41-.67-.71-.16-.3-.24-.64-.24-1.02Zm9.6-.6V56h.96v-3.48c0-.66-.17-1.19-.52-1.57-.33-.4-.8-.59-1.38-.59-.36 0-.67.08-.95.24-.28.16-.5.4-.69.74v-.86h-.96V56h.96v-3.36c0-.27.06-.51.17-.72.12-.2.28-.37.5-.48.2-.12.45-.18.73-.18.39 0 .68.12.88.35.2.23.3.57.3 1.03Zm2.77-6V56h.96v-9.36h-.97Zm2.76 1.56c0 .18.06.33.2.47a.66.66 0 0 0 .93-.94.66.66 0 0 0-.94 0 .64.64 0 0 0-.19.47Zm.18 2.28V56h.96v-5.52h-.96Zm2.88-3.84V56h.96v-9.36h-.96Zm3 3.84-2.4 2.28L134.9 56h1.2l-2.64-3.24 2.4-2.28h-1.2Zm5.1 0v.9h2.76v-.9h-2.76Zm.9-1.92V56h.96v-7.44h-.96Zm2.82-.36c0 .18.07.33.2.47a.66.66 0 0 0 .93-.94.66.66 0 0 0-.94 0 .64.64 0 0 0-.19.47Zm.18 2.28V56h.96v-5.52h-.96Zm10.5 2.04c0-.46-.07-.84-.21-1.16a1.56 1.56 0 0 0-.6-.75 1.75 1.75 0 0 0-.97-.25c-.36 0-.7.09-.98.26-.29.17-.53.43-.72.77a1.51 1.51 0 0 0-.61-.75c-.27-.19-.6-.28-.99-.28-.34 0-.64.08-.9.23-.24.15-.45.38-.62.7v-.81h-.96V56h.96v-3.36c0-.29.05-.54.16-.74.1-.21.25-.37.44-.47.2-.11.42-.17.69-.17.35 0 .62.11.79.34.17.22.26.57.26 1.04V56h.96v-3.36c0-.29.05-.54.16-.74.1-.21.25-.37.44-.47.2-.11.42-.17.69-.17.35 0 .62.11.79.34.17.22.26.57.26 1.04V56h.96v-3.48Zm2.03 1.79-.75.47a2.48 2.48 0 0 0 1.2 1.15c.3.13.64.19 1 .19.57 0 1.03-.16 1.37-.48.35-.32.53-.72.53-1.2 0-.33-.08-.6-.24-.8-.15-.21-.36-.39-.62-.53-.27-.15-.56-.3-.88-.42l-.55-.25a1.65 1.65 0 0 1-.43-.3.53.53 0 0 1-.17-.39c0-.18.07-.32.21-.4a.97.97 0 0 1 .52-.14c.29 0 .54.07.77.2.23.14.42.31.57.52l.77-.49a1.8 1.8 0 0 0-.47-.55 2.44 2.44 0 0 0-2.38-.37c-.28.1-.5.26-.68.48-.16.21-.25.48-.25.81 0 .32.08.59.24.8.17.21.37.39.61.52.25.13.5.24.74.34.21.08.42.17.6.26.2.09.36.2.48.34.12.13.19.29.19.48 0 .21-.08.39-.24.51a1 1 0 0 1-.64.18 1.6 1.6 0 0 1-.62-.12c-.19-.08-.35-.2-.5-.34-.14-.15-.27-.3-.38-.47Zm4.13-1.07a2.8 2.8 0 0 0 2.86 2.88 2.82 2.82 0 0 0 2.47-1.4c.26-.43.39-.93.39-1.48a2.86 2.86 0 0 0-1.4-2.5c-.43-.26-.92-.38-1.46-.38a2.86 2.86 0 0 0-2.48 1.4c-.25.42-.38.92-.38 1.48Zm.98 0c0-.38.08-.72.24-1.02.16-.3.39-.54.67-.7.29-.18.61-.26.97-.26s.68.08.96.25a2.03 2.03 0 0 1 .92 1.73c0 .38-.08.72-.25 1.02a1.83 1.83 0 0 1-1.63.96 1.9 1.9 0 0 1-.97-.25c-.28-.18-.5-.41-.67-.71-.16-.3-.24-.64-.24-1.02Zm6.06-6.6V56h.95v-9.36h-.95Zm2.76 1.56c0 .18.06.33.2.47a.66.66 0 0 0 .93-.94.66.66 0 0 0-.94 0 .64.64 0 0 0-.19.47Zm.18 2.28V56h.96v-5.52h-.96Z" opacity=".8"/>
  <path stroke="#fff" stroke-width="6" d="m3 55 36.27-36.27C45.07 12.93 40.97 3 32.75 3c-8.21 0-12.32 9.93-6.52 15.73L62.5 55M30 40l16 15.5m-18-5-8 8"/>
</svg>
