<svg width="20" height="20" viewBox="0 0 20 20" fill="none" xmlns="http://www.w3.org/2000/svg">
<path d="M15 3.33337H4.99999C4.07952 3.33337 3.33333 4.07957 3.33333 5.00004V6.66671C3.33333 7.58718 4.07952 8.33337 4.99999 8.33337H15C15.9205 8.33337 16.6667 7.58718 16.6667 6.66671V5.00004C16.6667 4.07957 15.9205 3.33337 15 3.33337Z" stroke="#222222" stroke-linecap="round" stroke-linejoin="round"/>
<path d="M15 11.6667H4.99999C4.07952 11.6667 3.33333 12.4129 3.33333 13.3334V15C3.33333 15.9205 4.07952 16.6667 4.99999 16.6667H15C15.9205 16.6667 16.6667 15.9205 16.6667 15V13.3334C16.6667 12.4129 15.9205 11.6667 15 11.6667Z" stroke="#222222" stroke-linecap="round" stroke-linejoin="round"/>
</svg>
